<svg version="1.1" viewBox="0.0 0.0 600.0 371.0" fill="none" stroke="none" stroke-linecap="square" stroke-miterlimit="10" width="600" height="371" xmlns:xlink="http://www.w3.org/1999/xlink" xmlns="http://www.w3.org/2000/svg"><path fill="#ffffff" d="M0 0L600.0 0L600.0 371.0L0 371.0L0 0Z" fill-rule="nonzero"/><path fill="#5891ad" d="M300.0 54.916668C312.79233 54.916668 325.53122 56.56664 337.9014 59.825745L300.0 203.68333Z" fill-rule="nonzero"/><path fill="#0f45a8" d="M283.21072 55.867092C288.78476 55.233982 294.39014 54.916668 300.0 54.916668L300.0 203.68333Z" fill-rule="nonzero"/><path fill="#1c7685" d="M254.02856 62.197826C263.519 59.114193 273.29565 56.993267 283.21072 55.867092L300.0 203.68333Z" fill-rule="nonzero"/><path fill="#ff6f31" d="M152.18376 186.89406C158.76373 128.96257 198.57819 80.214745 254.02856 62.197826L300.0 203.68333Z" fill-rule="nonzero"/><path fill="#004561" d="M337.9014 59.825745C414.6588 80.04861 462.0191 156.97151 445.51575 234.61366C429.01242 312.2558 354.45926 363.2652 276.1125 350.51965C197.76573 337.7741 143.22559 265.76367 152.18376 186.89406L300.0 203.68333Z" fill-rule="nonzero"/><path fill="#1a1a1a" d="M18.534374 65.916664L21.83125 57.322914L23.05 57.322914L26.565624 65.916664L25.284374 65.916664L24.26875 63.30729L20.690624 63.30729L19.7375 65.916664L18.534374 65.916664ZM21.01875 62.385414L23.925 62.385414L23.034374 60.010414Q22.6125 58.93229 22.425 58.229164Q22.253124 59.05729 21.95625 59.86979L21.01875 62.385414ZM25.925 64.05729L26.95625 63.90104Q27.05 64.52604 27.440624 64.854164Q27.846874 65.18229 28.58125 65.18229Q29.3 65.18229 29.64375 64.90104Q30.003124 64.604164 30.003124 64.197914Q30.003124 63.83854 29.690624 63.635414Q29.471874 63.49479 28.6125 63.27604Q27.45625 62.979164 27.003124 62.77604Q26.565624 62.55729 26.33125 62.18229Q26.096874 61.80729 26.096874 61.33854Q26.096874 60.93229 26.284374 60.572914Q26.471874 60.21354 26.8 59.979164Q27.05 59.80729 27.471874 59.68229Q27.89375 59.55729 28.39375 59.55729Q29.1125 59.55729 29.659374 59.77604Q30.221874 59.979164 30.4875 60.33854Q30.753124 60.697914 30.846874 61.291664L29.815624 61.43229Q29.753124 60.96354 29.409374 60.697914Q29.08125 60.416664 28.45625 60.416664Q27.7375 60.416664 27.425 60.666664Q27.1125 60.90104 27.1125 61.229164Q27.1125 61.43229 27.2375 61.58854Q27.378124 61.760414 27.64375 61.86979Q27.8 61.93229 28.58125 62.135414Q29.70625 62.447914 30.14375 62.635414Q30.58125 62.822914 30.83125 63.18229Q31.08125 63.541664 31.08125 64.08854Q31.08125 64.61979 30.76875 65.08854Q30.471874 65.541664 29.89375 65.80729Q29.315624 66.05729 28.58125 66.05729Q27.3625 66.05729 26.721874 65.55729Q26.096874 65.041664 25.925 64.05729ZM33.346874 58.541664L33.346874 57.322914L34.409374 57.322914L34.409374 58.541664L33.346874 58.541664ZM33.346874 65.916664L33.346874 59.697914L34.409374 59.697914L34.409374 65.916664L33.346874 65.916664ZM40.409374 65.15104Q39.815624 65.65104 39.26875 65.854164Q38.7375 66.05729 38.1125 66.05729Q37.08125 66.05729 36.534374 65.55729Q35.9875 65.05729 35.9875 64.27604Q35.9875 63.822914 36.190624 63.447914Q36.39375 63.05729 36.7375 62.83854Q37.08125 62.604164 37.503124 62.49479Q37.8 62.40104 38.440624 62.322914Q39.70625 62.18229 40.315624 61.96354Q40.315624 61.74479 40.315624 61.697914Q40.315624 61.041664 40.01875 60.77604Q39.6125 60.43229 38.815624 60.43229Q38.08125 60.43229 37.721874 60.697914Q37.3625 60.947914 37.190624 61.604164L36.159374 61.46354Q36.3 60.80729 36.628124 60.40104Q36.95625 59.99479 37.565624 59.77604Q38.175 59.55729 38.971874 59.55729Q39.76875 59.55729 40.26875 59.74479Q40.76875 59.93229 41.003124 60.21354Q41.2375 60.49479 41.33125 60.93229Q41.378124 61.197914 41.378124 61.90104L41.378124 63.30729Q41.378124 64.77604 41.440624 65.166664Q41.51875 65.55729 41.721874 65.916664L40.6125 65.916664Q40.45625 65.58854 40.409374 65.15104ZM40.315624 62.791664Q39.7375 63.02604 38.596874 63.197914Q37.940624 63.291664 37.675 63.416664Q37.409374 63.52604 37.253124 63.74479Q37.1125 63.96354 37.1125 64.24479Q37.1125 64.666664 37.425 64.947914Q37.753124 65.229164 38.3625 65.229164Q38.971874 65.229164 39.440624 64.96354Q39.925 64.697914 40.14375 64.229164Q40.315624 63.86979 40.315624 63.18229L40.315624 62.791664ZM43.346874 65.916664L43.346874 59.697914L44.284374 59.697914L44.284374 60.572914Q44.971874 59.55729 46.26875 59.55729Q46.83125 59.55729 47.3 59.760414Q47.784374 59.96354 48.01875 60.291664Q48.253124 60.61979 48.346874 61.05729Q48.39375 61.354164 48.39375 62.08854L48.39375 65.916664L47.346874 65.916664L47.346874 62.135414Q47.346874 61.479164 47.221874 61.166664Q47.096874 60.854164 46.784374 60.666664Q46.471874 60.46354 46.05 60.46354Q45.378124 60.46354 44.878124 60.90104Q44.39375 61.322914 44.39375 62.510414L44.39375 65.916664L43.346874 65.916664Z" fill-rule="nonzero"/><path fill="#9e9e9e" d="M19.05 80.65104L20.1125 80.510414Q20.284374 81.40104 20.721874 81.80729Q21.159374 82.197914 21.784374 82.197914Q22.534374 82.197914 23.05 81.68229Q23.565624 81.166664 23.565624 80.40104Q23.565624 79.68229 23.08125 79.21354Q22.6125 78.729164 21.878124 78.729164Q21.58125 78.729164 21.128124 78.854164L21.253124 77.916664Q21.3625 77.93229 21.425 77.93229Q22.096874 77.93229 22.628124 77.58854Q23.175 77.229164 23.175 76.49479Q23.175 75.916664 22.784374 75.541664Q22.39375 75.15104 21.76875 75.15104Q21.159374 75.15104 20.7375 75.541664Q20.33125 75.93229 20.221874 76.697914L19.159374 76.510414Q19.346874 75.46354 20.034374 74.885414Q20.721874 74.291664 21.7375 74.291664Q22.440624 74.291664 23.034374 74.604164Q23.628124 74.90104 23.940624 75.416664Q24.253124 75.93229 24.253124 76.52604Q24.253124 77.072914 23.95625 77.541664Q23.659374 77.99479 23.08125 78.260414Q23.83125 78.43229 24.253124 78.99479Q24.675 79.541664 24.675 80.385414Q24.675 81.510414 23.846874 82.291664Q23.034374 83.072914 21.784374 83.072914Q20.659374 83.072914 19.909374 82.40104Q19.159374 81.71354 19.05 80.65104ZM26.64375 82.916664L26.64375 81.71354L27.846874 81.71354L27.846874 82.916664L26.64375 82.916664ZM34.596874 81.90104L34.596874 82.916664L28.909374 82.916664Q28.909374 82.541664 29.034374 82.18229Q29.253124 81.604164 29.721874 81.041664Q30.20625 80.479164 31.1125 79.74479Q32.51875 78.58854 33.003124 77.916664Q33.503124 77.24479 33.503124 76.65104Q33.503124 76.02604 33.05 75.604164Q32.596874 75.166664 31.878124 75.166664Q31.1125 75.166664 30.659374 75.61979Q30.20625 76.072914 30.190624 76.885414L29.1125 76.77604Q29.221874 75.55729 29.940624 74.93229Q30.675 74.291664 31.909374 74.291664Q33.14375 74.291664 33.8625 74.979164Q34.58125 75.666664 34.58125 76.68229Q34.58125 77.197914 34.3625 77.697914Q34.159374 78.18229 33.659374 78.74479Q33.175 79.291664 32.05 80.24479Q31.096874 81.041664 30.815624 81.33854Q30.55 81.61979 30.378124 81.90104L34.596874 81.90104ZM36.253124 76.385414Q36.253124 75.46354 36.70625 74.822914Q37.175 74.18229 38.05 74.18229Q38.8625 74.18229 39.39375 74.760414Q39.925 75.33854 39.925 76.447914Q39.925 77.541664 39.378124 78.135414Q38.846874 78.71354 38.065624 78.71354Q37.284374 78.71354 36.76875 78.135414Q36.253124 77.55729 36.253124 76.385414ZM38.08125 74.90104Q37.690624 74.90104 37.425 75.24479Q37.175 75.58854 37.175 76.49479Q37.175 77.322914 37.425 77.666664Q37.690624 77.99479 38.08125 77.99479Q38.4875 77.99479 38.7375 77.65104Q39.003124 77.30729 39.003124 76.416664Q39.003124 75.572914 38.7375 75.24479Q38.471874 74.90104 38.08125 74.90104ZM38.08125 83.229164L42.784374 74.18229L43.64375 74.18229L38.95625 83.229164L38.08125 83.229164ZM41.8 80.90104Q41.8 79.979164 42.253124 79.33854Q42.721874 78.697914 43.6125 78.697914Q44.425 78.697914 44.95625 79.27604Q45.4875 79.83854 45.4875 80.96354Q45.4875 82.05729 44.940624 82.65104Q44.409374 83.229164 43.6125 83.229164Q42.846874 83.229164 42.315624 82.65104Q41.8 82.072914 41.8 80.90104ZM43.64375 79.416664Q43.2375 79.416664 42.971874 79.760414Q42.721874 80.104164 42.721874 81.010414Q42.721874 81.822914 42.9875 82.166664Q43.253124 82.510414 43.64375 82.510414Q44.034374 82.510414 44.3 82.166664Q44.565624 81.822914 44.565624 80.916664Q44.565624 80.08854 44.3 79.760414Q44.034374 79.416664 43.64375 79.416664Z" fill-rule="nonzero"/><path stroke="#757575" stroke-width="1.0" stroke-linecap="butt" d="M18.55 70.416664L145.23334 70.416664L270.03738 65.56766" fill-rule="nonzero"/><path fill="#9e9e9e" d="M272.03738 65.56766C272.03738 64.46309 271.14197 63.567657 270.03738 63.567657C268.93283 63.567657 268.03738 64.46309 268.03738 65.56766C268.03738 66.672226 268.93283 67.56766 270.03738 67.56766C271.14197 67.56766 272.03738 66.672226 272.03738 65.56766" fill-rule="nonzero"/><path fill="#1a1a1a" d="M19.425 109.78325L19.425 101.1895L22.659374 101.1895Q23.64375 101.1895 24.2375 101.455124Q24.83125 101.72075 25.159374 102.267624Q25.503124 102.798874 25.503124 103.392624Q25.503124 103.9395 25.20625 104.423874Q24.909374 104.90825 24.3 105.205124Q25.08125 105.4395 25.4875 106.002Q25.909374 106.548874 25.909374 107.298874Q25.909374 107.892624 25.659374 108.423874Q25.409374 108.9395 25.034374 109.22075Q24.659374 109.502 24.08125 109.642624Q23.51875 109.78325 22.70625 109.78325L19.425 109.78325ZM20.565624 104.798874L22.425 104.798874Q23.175 104.798874 23.503124 104.705124Q23.940624 104.580124 24.159374 104.28325Q24.378124 103.97075 24.378124 103.517624Q24.378124 103.09575 24.175 102.767624Q23.971874 102.4395 23.58125 102.330124Q23.20625 102.205124 22.284374 102.205124L20.565624 102.205124L20.565624 104.798874ZM20.565624 108.767624L22.70625 108.767624Q23.253124 108.767624 23.471874 108.72075Q23.878124 108.65825 24.128124 108.502Q24.39375 108.330124 24.565624 108.017624Q24.7375 107.705124 24.7375 107.298874Q24.7375 106.8145 24.4875 106.455124Q24.253124 106.09575 23.815624 105.955124Q23.378124 105.8145 22.55 105.8145L20.565624 105.8145L20.565624 108.767624ZM27.315624 109.78325L27.315624 101.1895L28.378124 101.1895L28.378124 109.78325L27.315624 109.78325ZM34.409374 109.017624Q33.815624 109.517624 33.26875 109.72075Q32.7375 109.923874 32.1125 109.923874Q31.08125 109.923874 30.534374 109.423874Q29.9875 108.923874 29.9875 108.142624Q29.9875 107.6895 30.190624 107.3145Q30.39375 106.923874 30.7375 106.705124Q31.08125 106.47075 31.503124 106.361374Q31.8 106.267624 32.440624 106.1895Q33.70625 106.048874 34.315624 105.830124Q34.315624 105.611374 34.315624 105.5645Q34.315624 104.90825 34.01875 104.642624Q33.6125 104.298874 32.815624 104.298874Q32.08125 104.298874 31.721874 104.5645Q31.3625 104.8145 31.190624 105.47075L30.159374 105.330124Q30.3 104.673874 30.628124 104.267624Q30.95625 103.861374 31.565624 103.642624Q32.175 103.423874 32.971874 103.423874Q33.76875 103.423874 34.26875 103.611374Q34.76875 103.798874 35.003124 104.080124Q35.2375 104.361374 35.33125 104.798874Q35.378124 105.0645 35.378124 105.767624L35.378124 107.173874Q35.378124 108.642624 35.440624 109.03325Q35.51875 109.423874 35.721874 109.78325L34.6125 109.78325Q34.45625 109.455124 34.409374 109.017624ZM34.315624 106.65825Q33.7375 106.892624 32.596874 107.0645Q31.940624 107.15825 31.675 107.28325Q31.409374 107.392624 31.253124 107.611374Q31.1125 107.830124 31.1125 108.111374Q31.1125 108.53325 31.425 108.8145Q31.753124 109.09575 32.3625 109.09575Q32.971874 109.09575 33.440624 108.830124Q33.925 108.5645 34.14375 108.09575Q34.315624 107.736374 34.315624 107.048874L34.315624 106.65825ZM41.409374 107.502L42.440624 107.642624Q42.26875 108.705124 41.565624 109.3145Q40.8625 109.923874 39.846874 109.923874Q38.565624 109.923874 37.784374 109.09575Q37.01875 108.252 37.01875 106.6895Q37.01875 105.6895 37.346874 104.9395Q37.690624 104.173874 38.3625 103.798874Q39.05 103.423874 39.8625 103.423874Q40.8625 103.423874 41.503124 103.9395Q42.159374 104.4395 42.346874 105.392624L41.315624 105.548874Q41.175 104.923874 40.8 104.611374Q40.425 104.28325 39.89375 104.28325Q39.096874 104.28325 38.596874 104.861374Q38.096874 105.423874 38.096874 106.65825Q38.096874 107.923874 38.58125 108.486374Q39.065624 109.048874 39.83125 109.048874Q40.45625 109.048874 40.8625 108.673874Q41.284374 108.298874 41.409374 107.502ZM43.346874 109.78325L43.346874 101.1895L44.409374 101.1895L44.409374 106.09575L46.89375 103.5645L48.26875 103.5645L45.878124 105.861374L48.503124 109.78325L47.20625 109.78325L45.14375 106.59575L44.409374 107.3145L44.409374 109.78325L43.346874 109.78325Z" fill-rule="nonzero"/><path fill="#9e9e9e" d="M23.01875 126.78325L21.971874 126.78325L21.971874 120.0645Q21.58125 120.423874 20.95625 120.798874Q20.346874 121.15825 19.8625 121.330124L19.8625 120.3145Q20.7375 119.892624 21.39375 119.3145Q22.065624 118.72075 22.346874 118.15825L23.01875 118.15825L23.01875 126.78325ZM27.675 122.127Q27.01875 121.877 26.690624 121.4395Q26.378124 120.986374 26.378124 120.377Q26.378124 119.4395 27.05 118.798874Q27.7375 118.15825 28.846874 118.15825Q29.971874 118.15825 30.659374 118.8145Q31.346874 119.47075 31.346874 120.40825Q31.346874 121.002 31.034374 121.4395Q30.721874 121.877 30.08125 122.127Q30.878124 122.377 31.284374 122.955124Q31.690624 123.53325 31.690624 124.330124Q31.690624 125.423874 30.909374 126.173874Q30.14375 126.923874 28.8625 126.923874Q27.596874 126.923874 26.815624 126.173874Q26.034374 125.423874 26.034374 124.298874Q26.034374 123.455124 26.45625 122.892624Q26.89375 122.330124 27.675 122.127ZM27.45625 120.330124Q27.45625 120.9395 27.846874 121.330124Q28.253124 121.72075 28.878124 121.72075Q29.4875 121.72075 29.878124 121.34575Q30.26875 120.955124 30.26875 120.392624Q30.26875 119.8145 29.8625 119.423874Q29.45625 119.017624 28.8625 119.017624Q28.253124 119.017624 27.846874 119.40825Q27.45625 119.798874 27.45625 120.330124ZM27.128124 124.298874Q27.128124 124.752 27.33125 125.173874Q27.55 125.59575 27.971874 125.830124Q28.39375 126.0645 28.878124 126.0645Q29.628124 126.0645 30.1125 125.580124Q30.6125 125.09575 30.6125 124.34575Q30.6125 123.580124 30.1125 123.080124Q29.6125 122.580124 28.846874 122.580124Q28.096874 122.580124 27.6125 123.080124Q27.128124 123.5645 27.128124 124.298874ZM33.64375 126.78325L33.64375 125.580124L34.846874 125.580124L34.846874 126.78325L33.64375 126.78325ZM41.596874 125.767624L41.596874 126.78325L35.909374 126.78325Q35.909374 126.40825 36.034374 126.048874Q36.253124 125.47075 36.721874 124.90825Q37.20625 124.34575 38.1125 123.611374Q39.51875 122.455124 40.003124 121.78325Q40.503124 121.111374 40.503124 120.517624Q40.503124 119.892624 40.05 119.47075Q39.596874 119.03325 38.878124 119.03325Q38.1125 119.03325 37.659374 119.486374Q37.20625 119.9395 37.190624 120.752L36.1125 120.642624Q36.221874 119.423874 36.940624 118.798874Q37.675 118.15825 38.909374 118.15825Q40.14375 118.15825 40.8625 118.84575Q41.58125 119.53325 41.58125 120.548874Q41.58125 121.0645 41.3625 121.5645Q41.159374 122.048874 40.659374 122.611374Q40.175 123.15825 39.05 124.111374Q38.096874 124.90825 37.815624 125.205124Q37.55 125.486374 37.378124 125.767624L41.596874 125.767624ZM43.253124 120.252Q43.253124 119.330124 43.70625 118.6895Q44.175 118.048874 45.05 118.048874Q45.8625 118.048874 46.39375 118.627Q46.925 119.205124 46.925 120.3145Q46.925 121.40825 46.378124 122.002Q45.846874 122.580124 45.065624 122.580124Q44.284374 122.580124 43.76875 122.002Q43.253124 121.423874 43.253124 120.252ZM45.08125 118.767624Q44.690624 118.767624 44.425 119.111374Q44.175 119.455124 44.175 120.361374Q44.175 121.1895 44.425 121.53325Q44.690624 121.861374 45.08125 121.861374Q45.4875 121.861374 45.7375 121.517624Q46.003124 121.173874 46.003124 120.28325Q46.003124 119.4395 45.7375 119.111374Q45.471874 118.767624 45.08125 118.767624ZM45.08125 127.09575L49.784374 118.048874L50.64375 118.048874L45.95625 127.09575L45.08125 127.09575ZM48.8 124.767624Q48.8 123.84575 49.253124 123.205124Q49.721874 122.5645 50.6125 122.5645Q51.425 122.5645 51.95625 123.142624Q52.4875 123.705124 52.4875 124.830124Q52.4875 125.923874 51.940624 126.517624Q51.409374 127.09575 50.6125 127.09575Q49.846874 127.09575 49.315624 126.517624Q48.8 125.9395 48.8 124.767624ZM50.64375 123.28325Q50.2375 123.28325 49.971874 123.627Q49.721874 123.97075 49.721874 124.877Q49.721874 125.6895 49.9875 126.03325Q50.253124 126.377 50.64375 126.377Q51.034374 126.377 51.3 126.03325Q51.565624 125.6895 51.565624 124.78325Q51.565624 123.955124 51.3 123.627Q51.034374 123.28325 50.64375 123.28325Z" fill-rule="nonzero"/><path stroke="#757575" stroke-width="1.0" stroke-linecap="butt" d="M18.55 114.28325L145.23334 114.28325L190.54077 114.28325" fill-rule="nonzero"/><path fill="#9e9e9e" d="M192.54077 114.28325C192.54077 113.17868 191.64534 112.28325 190.54077 112.28325C189.4362 112.28325 188.54077 113.17868 188.54077 114.28325C188.54077 115.38782 189.4362 116.28325 190.54077 116.28325C191.64534 116.28325 192.54077 115.38782 192.54077 114.28325" fill-rule="nonzero"/><path fill="#1a1a1a" d="M552.8719 65.916664L550.59064 57.322914L551.7625 57.322914L553.075 62.96354Q553.27814 63.83854 553.4344 64.71354Q553.7625 63.33854 553.825 63.11979L555.45 57.322914L556.825 57.322914L558.0594 61.666664Q558.5125 63.291664 558.73126 64.71354Q558.8875 63.90104 559.15314 62.83854L560.4969 57.322914L561.6375 57.322914L559.29376 65.916664L558.1844 65.916664L556.3875 59.36979Q556.15314 58.55729 556.10626 58.36979Q555.98126 58.947914 555.85626 59.36979L554.04376 65.916664L552.8719 65.916664ZM562.2469 65.916664L562.2469 57.322914L563.29376 57.322914L563.29376 60.40104Q564.02814 59.55729 565.15314 59.55729Q565.85626 59.55729 566.35626 59.83854Q566.8719 60.104164 567.09064 60.58854Q567.3094 61.05729 567.3094 61.979164L567.3094 65.916664L566.2625 65.916664L566.2625 61.979164Q566.2625 61.18229 565.91876 60.822914Q565.575 60.46354 564.95 60.46354Q564.48126 60.46354 564.0594 60.71354Q563.65314 60.947914 563.46564 61.36979Q563.29376 61.77604 563.29376 62.510414L563.29376 65.916664L562.2469 65.916664ZM569.2469 58.541664L569.2469 57.322914L570.3094 57.322914L570.3094 58.541664L569.2469 58.541664ZM569.2469 65.916664L569.2469 59.697914L570.3094 59.697914L570.3094 65.916664L569.2469 65.916664ZM574.54376 64.979164L574.7 65.90104Q574.2469 65.99479 573.90314 65.99479Q573.325 65.99479 573.0125 65.822914Q572.7 65.635414 572.5594 65.33854Q572.4344 65.041664 572.4344 64.08854L572.4344 60.510414L571.66876 60.510414L571.66876 59.697914L572.4344 59.697914L572.4344 58.15104L573.48126 57.52604L573.48126 59.697914L574.54376 59.697914L574.54376 60.510414L573.48126 60.510414L573.48126 64.15104Q573.48126 64.604164 573.52814 64.729164Q573.59064 64.854164 573.71564 64.93229Q573.84064 65.010414 574.075 65.010414Q574.2625 65.010414 574.54376 64.979164ZM579.4969 63.916664L580.59064 64.041664Q580.34064 64.99479 579.6375 65.52604Q578.9344 66.05729 577.85626 66.05729Q576.4969 66.05729 575.6844 65.21354Q574.8875 64.36979 574.8875 62.854164Q574.8875 61.291664 575.7 60.43229Q576.5125 59.55729 577.79376 59.55729Q579.04376 59.55729 579.825 60.40104Q580.6219 61.24479 580.6219 62.791664Q580.6219 62.885414 580.6219 63.072914L575.98126 63.072914Q576.04376 64.104164 576.5594 64.65104Q577.075 65.18229 577.85626 65.18229Q578.4344 65.18229 578.84064 64.885414Q579.2625 64.572914 579.4969 63.916664ZM576.04376 62.21354L579.5125 62.21354Q579.45 61.416664 579.1219 61.02604Q578.60626 60.416664 577.8094 60.416664Q577.075 60.416664 576.575 60.90104Q576.09064 61.385414 576.04376 62.21354Z" fill-rule="nonzero"/><path fill="#9e9e9e" d="M557.325 82.916664L557.325 80.854164L553.60626 80.854164L553.60626 79.885414L557.52814 74.322914L558.3875 74.322914L558.3875 79.885414L559.54376 79.885414L559.54376 80.854164L558.3875 80.854164L558.3875 82.916664L557.325 82.916664ZM557.325 79.885414L557.325 76.02604L554.6375 79.885414L557.325 79.885414ZM561.54376 82.916664L561.54376 81.71354L562.7469 81.71354L562.7469 82.916664L561.54376 82.916664ZM567.91876 82.916664L566.8719 82.916664L566.8719 76.197914Q566.48126 76.55729 565.85626 76.93229Q565.2469 77.291664 564.7625 77.46354L564.7625 76.447914Q565.6375 76.02604 566.29376 75.447914Q566.96564 74.854164 567.2469 74.291664L567.91876 74.291664L567.91876 82.916664ZM571.15314 76.385414Q571.15314 75.46354 571.60626 74.822914Q572.075 74.18229 572.95 74.18229Q573.7625 74.18229 574.29376 74.760414Q574.825 75.33854 574.825 76.447914Q574.825 77.541664 574.27814 78.135414Q573.7469 78.71354 572.96564 78.71354Q572.1844 78.71354 571.66876 78.135414Q571.15314 77.55729 571.15314 76.385414ZM572.98126 74.90104Q572.59064 74.90104 572.325 75.24479Q572.075 75.58854 572.075 76.49479Q572.075 77.322914 572.325 77.666664Q572.59064 77.99479 572.98126 77.99479Q573.3875 77.99479 573.6375 77.65104Q573.90314 77.30729 573.90314 76.416664Q573.90314 75.572914 573.6375 75.24479Q573.3719 74.90104 572.98126 74.90104ZM572.98126 83.229164L577.6844 74.18229L578.54376 74.18229L573.85626 83.229164L572.98126 83.229164ZM576.7 80.90104Q576.7 79.979164 577.15314 79.33854Q577.6219 78.697914 578.5125 78.697914Q579.325 78.697914 579.85626 79.27604Q580.3875 79.83854 580.3875 80.96354Q580.3875 82.05729 579.84064 82.65104Q579.3094 83.229164 578.5125 83.229164Q577.7469 83.229164 577.21564 82.65104Q576.7 82.072914 576.7 80.90104ZM578.54376 79.416664Q578.1375 79.416664 577.8719 79.760414Q577.6219 80.104164 577.6219 81.010414Q577.6219 81.822914 577.8875 82.166664Q578.15314 82.510414 578.54376 82.510414Q578.9344 82.510414 579.2 82.166664Q579.46564 81.822914 579.46564 80.916664Q579.46564 80.08854 579.2 79.760414Q578.9344 79.416664 578.54376 79.416664Z" fill-rule="nonzero"/><path stroke="#757575" stroke-width="1.0" stroke-linecap="butt" d="M581.45 70.416664L454.76666 70.416664L318.15353 63.525757" fill-rule="nonzero"/><path fill="#9e9e9e" d="M320.15353 63.525757C320.15353 62.421185 319.25812 61.525757 318.15353 61.525757C317.04898 61.525757 316.15353 62.421185 316.15353 63.525757C316.15353 64.630325 317.04898 65.52576 318.15353 65.52576C319.25812 65.52576 320.15353 64.630325 320.15353 63.525757" fill-rule="nonzero"/><path fill="#1a1a1a" d="M533.41876 315.82312L533.41876 307.22937L534.54376 307.22937L534.54376 310.76062L539.0125 310.76062L539.0125 307.22937L540.15314 307.22937L540.15314 315.82312L539.0125 315.82312L539.0125 311.77625L534.54376 311.77625L534.54376 315.82312L533.41876 315.82312ZM542.2469 308.44812L542.2469 307.22937L543.3094 307.22937L543.3094 308.44812L542.2469 308.44812ZM542.2469 315.82312L542.2469 309.60437L543.3094 309.60437L543.3094 315.82312L542.2469 315.82312ZM544.825 313.96375L545.85626 313.8075Q545.95 314.4325 546.34064 314.76062Q546.7469 315.08875 547.48126 315.08875Q548.2 315.08875 548.54376 314.8075Q548.90314 314.51062 548.90314 314.10437Q548.90314 313.745 548.59064 313.54187Q548.3719 313.40125 547.5125 313.1825Q546.35626 312.88562 545.90314 312.6825Q545.46564 312.46375 545.23126 312.08875Q544.9969 311.71375 544.9969 311.245Q544.9969 310.83875 545.1844 310.47937Q545.3719 310.12 545.7 309.88562Q545.95 309.71375 546.3719 309.58875Q546.79376 309.46375 547.29376 309.46375Q548.0125 309.46375 548.5594 309.6825Q549.1219 309.88562 549.3875 310.245Q549.65314 310.60437 549.7469 311.19812L548.71564 311.33875Q548.65314 310.87 548.3094 310.60437Q547.98126 310.32312 547.35626 310.32312Q546.6375 310.32312 546.325 310.57312Q546.0125 310.8075 546.0125 311.13562Q546.0125 311.33875 546.1375 311.495Q546.27814 311.66687 546.54376 311.77625Q546.7 311.83875 547.48126 312.04187Q548.60626 312.35437 549.04376 312.54187Q549.48126 312.72937 549.73126 313.08875Q549.98126 313.44812 549.98126 313.995Q549.98126 314.52625 549.66876 314.995Q549.3719 315.44812 548.79376 315.71375Q548.21564 315.96375 547.48126 315.96375Q546.2625 315.96375 545.6219 315.46375Q544.9969 314.94812 544.825 313.96375ZM552.2469 318.21375L552.2469 309.60437L553.2 309.60437L553.2 310.40125Q553.54376 309.9325 553.96564 309.69812Q554.40314 309.46375 555.0125 309.46375Q555.8094 309.46375 556.41876 309.87Q557.02814 310.27625 557.325 311.02625Q557.6375 311.77625 557.6375 312.66687Q557.6375 313.62 557.29376 314.38562Q556.96564 315.15125 556.3094 315.5575Q555.65314 315.96375 554.9344 315.96375Q554.40314 315.96375 553.98126 315.745Q553.5594 315.51062 553.29376 315.1825L553.29376 318.21375L552.2469 318.21375ZM553.2 312.745Q553.2 313.94812 553.6844 314.52625Q554.16876 315.08875 554.85626 315.08875Q555.5594 315.08875 556.0594 314.495Q556.5594 313.90125 556.5594 312.65125Q556.5594 311.46375 556.075 310.88562Q555.59064 310.29187 554.90314 310.29187Q554.23126 310.29187 553.71564 310.91687Q553.2 311.54187 553.2 312.745ZM563.3094 315.0575Q562.71564 315.5575 562.16876 315.76062Q561.6375 315.96375 561.0125 315.96375Q559.98126 315.96375 559.4344 315.46375Q558.8875 314.96375 558.8875 314.1825Q558.8875 313.72937 559.09064 313.35437Q559.29376 312.96375 559.6375 312.745Q559.98126 312.51062 560.40314 312.40125Q560.7 312.3075 561.34064 312.22937Q562.60626 312.08875 563.21564 311.87Q563.21564 311.65125 563.21564 311.60437Q563.21564 310.94812 562.91876 310.6825Q562.5125 310.33875 561.71564 310.33875Q560.98126 310.33875 560.6219 310.60437Q560.2625 310.85437 560.09064 311.51062L559.0594 311.37Q559.2 310.71375 559.52814 310.3075Q559.85626 309.90125 560.46564 309.6825Q561.075 309.46375 561.8719 309.46375Q562.66876 309.46375 563.16876 309.65125Q563.66876 309.83875 563.90314 310.12Q564.1375 310.40125 564.23126 310.83875Q564.27814 311.10437 564.27814 311.8075L564.27814 313.21375Q564.27814 314.6825 564.34064 315.07312Q564.41876 315.46375 564.6219 315.82312L563.5125 315.82312Q563.35626 315.495 563.3094 315.0575ZM563.21564 312.69812Q562.6375 312.9325 561.4969 313.10437Q560.84064 313.19812 560.575 313.32312Q560.3094 313.4325 560.15314 313.65125Q560.0125 313.87 560.0125 314.15125Q560.0125 314.57312 560.325 314.85437Q560.65314 315.13562 561.2625 315.13562Q561.8719 315.13562 562.34064 314.87Q562.825 314.60437 563.04376 314.13562Q563.21564 313.77625 563.21564 313.08875L563.21564 312.69812ZM566.2469 315.82312L566.2469 309.60437L567.1844 309.60437L567.1844 310.47937Q567.8719 309.46375 569.16876 309.46375Q569.73126 309.46375 570.2 309.66687Q570.6844 309.87 570.91876 310.19812Q571.15314 310.52625 571.2469 310.96375Q571.29376 311.26062 571.29376 311.995L571.29376 315.82312L570.2469 315.82312L570.2469 312.04187Q570.2469 311.38562 570.1219 311.07312Q569.9969 310.76062 569.6844 310.57312Q569.3719 310.37 568.95 310.37Q568.27814 310.37 567.77814 310.8075Q567.29376 311.22937 567.29376 312.41687L567.29376 315.82312L566.2469 315.82312ZM573.2469 308.44812L573.2469 307.22937L574.3094 307.22937L574.3094 308.44812L573.2469 308.44812ZM573.2469 315.82312L573.2469 309.60437L574.3094 309.60437L574.3094 315.82312L573.2469 315.82312ZM580.3094 313.54187L581.34064 313.6825Q581.16876 314.745 580.46564 315.35437Q579.7625 315.96375 578.7469 315.96375Q577.46564 315.96375 576.6844 315.13562Q575.91876 314.29187 575.91876 312.72937Q575.91876 311.72937 576.2469 310.97937Q576.59064 310.21375 577.2625 309.83875Q577.95 309.46375 578.7625 309.46375Q579.7625 309.46375 580.40314 309.97937Q581.0594 310.47937 581.2469 311.4325L580.21564 311.58875Q580.075 310.96375 579.7 310.65125Q579.325 310.32312 578.79376 310.32312Q577.9969 310.32312 577.4969 310.90125Q576.9969 311.46375 576.9969 312.69812Q576.9969 313.96375 577.48126 314.52625Q577.96564 315.08875 578.73126 315.08875Q579.35626 315.08875 579.7625 314.71375Q580.1844 314.33875 580.3094 313.54187Z" fill-rule="nonzero"/><path fill="#9e9e9e" d="M547.0125 325.35437L547.0125 324.33875L552.575 324.33875L552.575 325.16687Q551.7625 326.04187 550.95 327.495Q550.15314 328.9325 549.71564 330.46375Q549.3875 331.54187 549.3094 332.82312L548.21564 332.82312Q548.23126 331.8075 548.60626 330.37Q548.9969 328.9325 549.7 327.60437Q550.41876 326.27625 551.23126 325.35437L547.0125 325.35437ZM559.4969 331.8075L559.4969 332.82312L553.8094 332.82312Q553.8094 332.44812 553.9344 332.08875Q554.15314 331.51062 554.6219 330.94812Q555.10626 330.38562 556.0125 329.65125Q557.41876 328.495 557.90314 327.82312Q558.40314 327.15125 558.40314 326.5575Q558.40314 325.9325 557.95 325.51062Q557.4969 325.07312 556.77814 325.07312Q556.0125 325.07312 555.5594 325.52625Q555.10626 325.97937 555.09064 326.79187L554.0125 326.6825Q554.1219 325.46375 554.84064 324.83875Q555.575 324.19812 556.8094 324.19812Q558.04376 324.19812 558.7625 324.88562Q559.48126 325.57312 559.48126 326.58875Q559.48126 327.10437 559.2625 327.60437Q559.0594 328.08875 558.5594 328.65125Q558.075 329.19812 556.95 330.15125Q555.9969 330.94812 555.71564 331.245Q555.45 331.52625 555.27814 331.8075L559.4969 331.8075ZM561.54376 332.82312L561.54376 331.62L562.7469 331.62L562.7469 332.82312L561.54376 332.82312ZM564.0125 325.35437L564.0125 324.33875L569.575 324.33875L569.575 325.16687Q568.7625 326.04187 567.95 327.495Q567.15314 328.9325 566.71564 330.46375Q566.3875 331.54187 566.3094 332.82312L565.21564 332.82312Q565.23126 331.8075 565.60626 330.37Q565.9969 328.9325 566.7 327.60437Q567.41876 326.27625 568.23126 325.35437L564.0125 325.35437ZM571.15314 326.29187Q571.15314 325.37 571.60626 324.72937Q572.075 324.08875 572.95 324.08875Q573.7625 324.08875 574.29376 324.66687Q574.825 325.245 574.825 326.35437Q574.825 327.44812 574.27814 328.04187Q573.7469 328.62 572.96564 328.62Q572.1844 328.62 571.66876 328.04187Q571.15314 327.46375 571.15314 326.29187ZM572.98126 324.8075Q572.59064 324.8075 572.325 325.15125Q572.075 325.495 572.075 326.40125Q572.075 327.22937 572.325 327.57312Q572.59064 327.90125 572.98126 327.90125Q573.3875 327.90125 573.6375 327.5575Q573.90314 327.21375 573.90314 326.32312Q573.90314 325.47937 573.6375 325.15125Q573.3719 324.8075 572.98126 324.8075ZM572.98126 333.13562L577.6844 324.08875L578.54376 324.08875L573.85626 333.13562L572.98126 333.13562ZM576.7 330.8075Q576.7 329.88562 577.15314 329.245Q577.6219 328.60437 578.5125 328.60437Q579.325 328.60437 579.85626 329.1825Q580.3875 329.745 580.3875 330.87Q580.3875 331.96375 579.84064 332.5575Q579.3094 333.13562 578.5125 333.13562Q577.7469 333.13562 577.21564 332.5575Q576.7 331.97937 576.7 330.8075ZM578.54376 329.32312Q578.1375 329.32312 577.8719 329.66687Q577.6219 330.01062 577.6219 330.91687Q577.6219 331.72937 577.8875 332.07312Q578.15314 332.41687 578.54376 332.41687Q578.9344 332.41687 579.2 332.07312Q579.46564 331.72937 579.46564 330.82312Q579.46564 329.995 579.2 329.66687Q578.9344 329.32312 578.54376 329.32312Z" fill-rule="nonzero"/><path stroke="#757575" stroke-width="1.0" stroke-linecap="butt" d="M581.45 320.32312L454.76666 320.32312L379.80515 320.32312" fill-rule="nonzero"/><path fill="#9e9e9e" d="M381.80515 320.32312C381.80515 319.21854 380.9097 318.32312 379.80515 318.32312C378.70056 318.32312 377.80515 319.21854 377.80515 320.32312C377.80515 321.42767 378.70056 322.32312 379.80515 322.32312C380.9097 322.32312 381.80515 321.42767 381.80515 320.32312" fill-rule="nonzero"/><path fill="#757575" d="M20.128124 37.55L20.128124 23.2375L26.471874 23.2375Q28.378124 23.2375 29.378124 23.628124Q30.378124 24.003124 30.971874 24.9875Q31.565624 25.95625 31.565624 27.14375Q31.565624 28.659374 30.58125 29.70625Q29.596874 30.753124 27.534374 31.034374Q28.284374 31.39375 28.675 31.753124Q29.503124 32.503124 30.253124 33.659374L32.7375 37.55L30.3625 37.55L28.45625 34.565624Q27.628124 33.284374 27.096874 32.596874Q26.565624 31.909374 26.128124 31.64375Q25.70625 31.3625 25.26875 31.253124Q24.940624 31.190624 24.221874 31.190624L22.01875 31.190624L22.01875 37.55L20.128124 37.55ZM22.01875 29.55L26.096874 29.55Q27.39375 29.55 28.1125 29.284374Q28.846874 29.01875 29.221874 28.425Q29.6125 27.83125 29.6125 27.14375Q29.6125 26.128124 28.878124 25.471874Q28.14375 24.815624 26.55 24.815624L22.01875 24.815624L22.01875 29.55ZM40.64375 36.26875Q39.659374 37.096874 38.753124 37.440624Q37.846874 37.784374 36.815624 37.784374Q35.1125 37.784374 34.190624 36.95625Q33.26875 36.1125 33.26875 34.815624Q33.26875 34.05 33.6125 33.425Q33.971874 32.8 34.534374 32.425Q35.096874 32.034374 35.8 31.83125Q36.315624 31.70625 37.3625 31.565624Q39.4875 31.315624 40.4875 30.971874Q40.503124 30.6125 40.503124 30.503124Q40.503124 29.440624 40.003124 28.9875Q39.33125 28.39375 38.003124 28.39375Q36.753124 28.39375 36.159374 28.83125Q35.58125 29.26875 35.3 30.378124L33.58125 30.14375Q33.815624 29.034374 34.346874 28.3625Q34.878124 27.675 35.89375 27.315624Q36.909374 26.940624 38.253124 26.940624Q39.58125 26.940624 40.409374 27.253124Q41.2375 27.565624 41.628124 28.05Q42.01875 28.51875 42.175 29.2375Q42.26875 29.690624 42.26875 30.8625L42.26875 33.20625Q42.26875 35.659374 42.378124 36.315624Q42.4875 36.95625 42.83125 37.55L40.9875 37.55Q40.721874 37.003124 40.64375 36.26875ZM40.4875 32.346874Q39.534374 32.7375 37.6125 33.003124Q36.534374 33.159374 36.08125 33.3625Q35.64375 33.55 35.39375 33.925Q35.14375 34.3 35.14375 34.76875Q35.14375 35.471874 35.675 35.940624Q36.20625 36.409374 37.2375 36.409374Q38.253124 36.409374 39.034374 35.971874Q39.83125 35.51875 40.20625 34.753124Q40.4875 34.14375 40.4875 32.9875L40.4875 32.346874ZM51.64375 33.753124L53.3625 33.971874Q53.08125 35.76875 51.909374 36.784374Q50.753124 37.784374 49.05 37.784374Q46.925 37.784374 45.628124 36.39375Q44.33125 35.003124 44.33125 32.409374Q44.33125 30.721874 44.878124 29.471874Q45.440624 28.20625 46.58125 27.58125Q47.721874 26.940624 49.065624 26.940624Q50.753124 26.940624 51.815624 27.8Q52.89375 28.659374 53.20625 30.221874L51.4875 30.4875Q51.253124 29.440624 50.628124 28.925Q50.003124 28.39375 49.128124 28.39375Q47.8 28.39375 46.971874 29.346874Q46.14375 30.3 46.14375 32.346874Q46.14375 34.440624 46.940624 35.39375Q47.7375 36.33125 49.034374 36.33125Q50.065624 36.33125 50.753124 35.70625Q51.45625 35.065624 51.64375 33.753124ZM54.878124 25.253124L54.878124 23.2375L56.64375 23.2375L56.64375 25.253124L54.878124 25.253124ZM54.878124 37.55L54.878124 27.175L56.64375 27.175L56.64375 37.55L54.878124 37.55ZM65.64375 36.26875Q64.65938 37.096874 63.753124 37.440624Q62.846874 37.784374 61.815624 37.784374Q60.1125 37.784374 59.190624 36.95625Q58.26875 36.1125 58.26875 34.815624Q58.26875 34.05 58.6125 33.425Q58.971874 32.8 59.534374 32.425Q60.096874 32.034374 60.8 31.83125Q61.315624 31.70625 62.3625 31.565624Q64.4875 31.315624 65.4875 30.971874Q65.50313 30.6125 65.50313 30.503124Q65.50313 29.440624 65.00313 28.9875Q64.33125 28.39375 63.003124 28.39375Q61.753124 28.39375 61.159374 28.83125Q60.58125 29.26875 60.3 30.378124L58.58125 30.14375Q58.815624 29.034374 59.346874 28.3625Q59.878124 27.675 60.89375 27.315624Q61.909374 26.940624 63.253124 26.940624Q64.58125 26.940624 65.40938 27.253124Q66.2375 27.565624 66.62813 28.05Q67.01875 28.51875 67.175 29.2375Q67.26875 29.690624 67.26875 30.8625L67.26875 33.20625Q67.26875 35.659374 67.37813 36.315624Q67.4875 36.95625 67.83125 37.55L65.9875 37.55Q65.72188 37.003124 65.64375 36.26875ZM65.4875 32.346874Q64.53438 32.7375 62.6125 33.003124Q61.534374 33.159374 61.08125 33.3625Q60.64375 33.55 60.39375 33.925Q60.14375 34.3 60.14375 34.76875Q60.14375 35.471874 60.675 35.940624Q61.20625 36.409374 62.2375 36.409374Q63.253124 36.409374 64.03438 35.971874Q64.83125 35.51875 65.20625 34.753124Q65.4875 34.14375 65.4875 32.9875L65.4875 32.346874ZM69.83125 37.55L69.83125 23.2375L71.58125 23.2375L71.58125 37.55L69.83125 37.55ZM80.09688 37.55L80.09688 23.2375L85.01875 23.2375Q86.69063 23.2375 87.58125 23.440624Q88.8 23.721874 89.675 24.45625Q90.8 25.425 91.3625 26.909374Q91.925 28.39375 91.925 30.315624Q91.925 31.940624 91.55 33.20625Q91.175 34.45625 90.56563 35.284374Q89.97188 36.1125 89.26875 36.596874Q88.56563 37.065624 87.56563 37.315624Q86.56563 37.55 85.25313 37.55L80.09688 37.55ZM81.9875 35.8625L85.05 35.8625Q86.45625 35.8625 87.25313 35.596874Q88.06563 35.33125 88.55 34.846874Q89.22188 34.175 89.59688 33.05Q89.97188 31.909374 89.97188 30.284374Q89.97188 28.034374 89.2375 26.83125Q88.50313 25.628124 87.44063 25.221874Q86.69063 24.925 85.00313 24.925L81.9875 24.925L81.9875 35.8625ZM100.97188 34.20625L102.78438 34.440624Q102.3625 36.01875 101.19063 36.909374Q100.03438 37.784374 98.22188 37.784374Q95.95625 37.784374 94.6125 36.39375Q93.28438 34.9875 93.28438 32.45625Q93.28438 29.83125 94.62813 28.39375Q95.97188 26.940624 98.12813 26.940624Q100.20625 26.940624 101.51875 28.3625Q102.84688 29.76875 102.84688 32.346874Q102.84688 32.503124 102.83125 32.815624L95.09688 32.815624Q95.19063 34.51875 96.06563 35.425Q96.94063 36.33125 98.2375 36.33125Q99.20625 36.33125 99.87813 35.83125Q100.56563 35.315624 100.97188 34.20625ZM95.19063 31.3625L100.9875 31.3625Q100.87813 30.065624 100.33125 29.409374Q99.4875 28.39375 98.14375 28.39375Q96.94063 28.39375 96.1125 29.20625Q95.28438 30.003124 95.19063 31.3625ZM104.8625 37.55L104.8625 27.175L106.44063 27.175L106.44063 28.628124Q106.925 27.878124 107.7375 27.409374Q108.55 26.940624 109.58125 26.940624Q110.7375 26.940624 111.47188 27.425Q112.20625 27.89375 112.51875 28.753124Q113.75313 26.940624 115.72188 26.940624Q117.26875 26.940624 118.09688 27.8Q118.925 28.659374 118.925 30.425L118.925 37.55L117.175 37.55L117.175 31.01875Q117.175 29.95625 117.00313 29.503124Q116.83125 29.034374 116.37813 28.753124Q115.94063 28.471874 115.33125 28.471874Q114.2375 28.471874 113.50313 29.20625Q112.78438 29.925 112.78438 31.51875L112.78438 37.55L111.03438 37.55L111.03438 30.815624Q111.03438 29.64375 110.59688 29.065624Q110.175 28.471874 109.19063 28.471874Q108.45625 28.471874 107.81563 28.8625Q107.19063 29.253124 106.90938 30.003124Q106.62813 30.753124 106.62813 32.175L106.62813 37.55L104.8625 37.55ZM120.22188 32.3625Q120.22188 29.4875 121.81563 28.096874Q123.15938 26.940624 125.08125 26.940624Q127.22188 26.940624 128.56563 28.346874Q129.925 29.753124 129.925 32.221874Q129.925 34.221874 129.33125 35.378124Q128.7375 36.51875 127.58125 37.159374Q126.44063 37.784374 125.08125 37.784374Q122.89375 37.784374 121.55 36.39375Q120.22188 34.9875 120.22188 32.3625ZM122.01875 32.3625Q122.01875 34.3625 122.87813 35.346874Q123.75313 36.33125 125.08125 36.33125Q126.39375 36.33125 127.25313 35.346874Q128.12813 34.346874 128.12813 32.3Q128.12813 30.378124 127.25313 29.39375Q126.37813 28.39375 125.08125 28.39375Q123.75313 28.39375 122.87813 29.39375Q122.01875 30.378124 122.01875 32.3625ZM131.55 38.409374L133.25313 38.659374Q133.3625 39.45625 133.84688 39.815624Q134.50313 40.3 135.64375 40.3Q136.8625 40.3 137.51875 39.815624Q138.19063 39.33125 138.425 38.45625Q138.56563 37.909374 138.55 36.190624Q137.39375 37.55 135.675 37.55Q133.53438 37.55 132.3625 36.003124Q131.19063 34.45625 131.19063 32.3Q131.19063 30.815624 131.72188 29.565624Q132.26875 28.315624 133.28438 27.628124Q134.31563 26.940624 135.69063 26.940624Q137.51875 26.940624 138.72188 28.425L138.72188 27.175L140.33125 27.175L140.33125 36.14375Q140.33125 38.565624 139.83125 39.565624Q139.34688 40.58125 138.26875 41.159374Q137.20625 41.753124 135.64375 41.753124Q133.8 41.753124 132.64375 40.925Q131.50313 40.096874 131.55 38.409374ZM133.00313 32.175Q133.00313 34.221874 133.81563 35.159374Q134.62813 36.096874 135.84688 36.096874Q137.05 36.096874 137.8625 35.159374Q138.69063 34.221874 138.69063 32.2375Q138.69063 30.33125 137.84688 29.3625Q137.00313 28.39375 135.81563 28.39375Q134.64375 28.39375 133.81563 29.346874Q133.00313 30.3 133.00313 32.175ZM142.84688 37.55L142.84688 27.175L144.425 27.175L144.425 28.753124Q145.03438 27.64375 145.55 27.3Q146.06563 26.940624 146.675 26.940624Q147.56563 26.940624 148.4875 27.503124L147.87813 29.14375Q147.2375 28.753124 146.59688 28.753124Q146.01875 28.753124 145.55 29.1125Q145.09688 29.45625 144.89375 30.065624Q144.6125 31.003124 144.6125 32.1125L144.6125 37.55L142.84688 37.55ZM156.64375 36.26875Q155.65938 37.096874 154.75313 37.440624Q153.84688 37.784374 152.81563 37.784374Q151.1125 37.784374 150.19063 36.95625Q149.26875 36.1125 149.26875 34.815624Q149.26875 34.05 149.6125 33.425Q149.97188 32.8 150.53438 32.425Q151.09688 32.034374 151.8 31.83125Q152.31563 31.70625 153.3625 31.565624Q155.4875 31.315624 156.4875 30.971874Q156.50313 30.6125 156.50313 30.503124Q156.50313 29.440624 156.00313 28.9875Q155.33125 28.39375 154.00313 28.39375Q152.75313 28.39375 152.15938 28.83125Q151.58125 29.26875 151.3 30.378124L149.58125 30.14375Q149.81563 29.034374 150.34688 28.3625Q150.87813 27.675 151.89375 27.315624Q152.90938 26.940624 154.25313 26.940624Q155.58125 26.940624 156.40938 27.253124Q157.2375 27.565624 157.62813 28.05Q158.01875 28.51875 158.175 29.2375Q158.26875 29.690624 158.26875 30.8625L158.26875 33.20625Q158.26875 35.659374 158.37813 36.315624Q158.4875 36.95625 158.83125 37.55L156.9875 37.55Q156.72188 37.003124 156.64375 36.26875ZM156.4875 32.346874Q155.53438 32.7375 153.6125 33.003124Q152.53438 33.159374 152.08125 33.3625Q151.64375 33.55 151.39375 33.925Q151.14375 34.3 151.14375 34.76875Q151.14375 35.471874 151.675 35.940624Q152.20625 36.409374 153.2375 36.409374Q154.25313 36.409374 155.03438 35.971874Q155.83125 35.51875 156.20625 34.753124Q156.4875 34.14375 156.4875 32.9875L156.4875 32.346874ZM160.8625 41.51875L160.8625 27.175L162.47188 27.175L162.47188 28.51875Q163.03438 27.7375 163.7375 27.346874Q164.45625 26.940624 165.47188 26.940624Q166.8 26.940624 167.81563 27.628124Q168.83125 28.315624 169.34688 29.565624Q169.87813 30.8 169.87813 32.284374Q169.87813 33.878124 169.3 35.159374Q168.7375 36.425 167.64375 37.1125Q166.55 37.784374 165.34688 37.784374Q164.47188 37.784374 163.76875 37.409374Q163.08125 37.034374 162.62813 36.471874L162.62813 41.51875L160.8625 41.51875ZM162.45625 32.425Q162.45625 34.425 163.26875 35.378124Q164.08125 36.33125 165.2375 36.33125Q166.40938 36.33125 167.2375 35.346874Q168.08125 34.3625 168.08125 32.26875Q168.08125 30.3 167.25313 29.315624Q166.44063 28.315624 165.31563 28.315624Q164.19063 28.315624 163.31563 29.378124Q162.45625 30.425 162.45625 32.425ZM171.8625 37.55L171.8625 23.2375L173.62813 23.2375L173.62813 28.3625Q174.8625 26.940624 176.7375 26.940624Q177.87813 26.940624 178.72188 27.39375Q179.58125 27.846874 179.94063 28.659374Q180.31563 29.45625 180.31563 30.971874L180.31563 37.55L178.56563 37.55L178.56563 30.971874Q178.56563 29.659374 177.9875 29.065624Q177.40938 28.45625 176.37813 28.45625Q175.59688 28.45625 174.89375 28.8625Q174.20625 29.26875 173.90938 29.971874Q173.62813 30.659374 173.62813 31.878124L173.62813 37.55L171.8625 37.55ZM181.87813 25.253124L181.87813 23.2375L183.64375 23.2375L183.64375 25.253124L181.87813 25.253124ZM181.87813 37.55L181.87813 27.175L183.64375 27.175L183.64375 37.55L181.87813 37.55ZM192.64375 33.753124L194.3625 33.971874Q194.08125 35.76875 192.90938 36.784374Q191.75313 37.784374 190.05 37.784374Q187.925 37.784374 186.62813 36.39375Q185.33125 35.003124 185.33125 32.409374Q185.33125 30.721874 185.87813 29.471874Q186.44063 28.20625 187.58125 27.58125Q188.72188 26.940624 190.06563 26.940624Q191.75313 26.940624 192.81563 27.8Q193.89375 28.659374 194.20625 30.221874L192.4875 30.4875Q192.25313 29.440624 191.62813 28.925Q191.00313 28.39375 190.12813 28.39375Q188.8 28.39375 187.97188 29.346874Q187.14375 30.3 187.14375 32.346874Q187.14375 34.440624 187.94063 35.39375Q188.7375 36.33125 190.03438 36.33125Q191.06563 36.33125 191.75313 35.70625Q192.45625 35.065624 192.64375 33.753124ZM195.15938 34.45625L196.90938 34.175Q197.05 35.221874 197.72188 35.784374Q198.39375 36.33125 199.59688 36.33125Q200.8 36.33125 201.37813 35.846874Q201.97188 35.346874 201.97188 34.690624Q201.97188 34.096874 201.45625 33.753124Q201.09688 33.51875 199.65938 33.159374Q197.72188 32.659374 196.97188 32.315624Q196.2375 31.95625 195.84688 31.33125Q195.45625 30.690624 195.45625 29.925Q195.45625 29.2375 195.76875 28.64375Q196.09688 28.05 196.64375 27.659374Q197.05 27.3625 197.75313 27.159374Q198.47188 26.940624 199.28438 26.940624Q200.50313 26.940624 201.425 27.3Q202.34688 27.64375 202.78438 28.253124Q203.22188 28.846874 203.39375 29.846874L201.675 30.08125Q201.55 29.284374 200.9875 28.846874Q200.425 28.39375 199.40938 28.39375Q198.19063 28.39375 197.675 28.8Q197.15938 29.190624 197.15938 29.721874Q197.15938 30.065624 197.37813 30.346874Q197.58125 30.628124 198.05 30.815624Q198.31563 30.909374 199.59688 31.253124Q201.47188 31.753124 202.20625 32.08125Q202.94063 32.39375 203.3625 33.003124Q203.78438 33.596874 203.78438 34.503124Q203.78438 35.378124 203.26875 36.159374Q202.75313 36.940624 201.78438 37.3625Q200.81563 37.784374 199.59688 37.784374Q197.58125 37.784374 196.51875 36.940624Q195.45625 36.096874 195.15938 34.45625ZM211.22188 32.3625Q211.22188 29.4875 212.81563 28.096874Q214.15938 26.940624 216.08125 26.940624Q218.22188 26.940624 219.56563 28.346874Q220.925 29.753124 220.925 32.221874Q220.925 34.221874 220.33125 35.378124Q219.7375 36.51875 218.58125 37.159374Q217.44063 37.784374 216.08125 37.784374Q213.89375 37.784374 212.55 36.39375Q211.22188 34.9875 211.22188 32.3625ZM213.01875 32.3625Q213.01875 34.3625 213.87813 35.346874Q214.75313 36.33125 216.08125 36.33125Q217.39375 36.33125 218.25313 35.346874Q219.12813 34.346874 219.12813 32.3Q219.12813 30.378124 218.25313 29.39375Q217.37813 28.39375 216.08125 28.39375Q214.75313 28.39375 213.87813 29.39375Q213.01875 30.378124 213.01875 32.3625ZM223.28438 37.55L223.28438 28.55L221.7375 28.55L221.7375 27.175L223.28438 27.175L223.28438 26.08125Q223.28438 25.034374 223.47188 24.51875Q223.72188 23.83125 224.3625 23.409374Q225.00313 22.9875 226.15938 22.9875Q226.90938 22.9875 227.8 23.159374L227.53438 24.690624Q226.9875 24.596874 226.50313 24.596874Q225.70625 24.596874 225.3625 24.940624Q225.03438 25.284374 225.03438 26.221874L225.03438 27.175L227.06563 27.175L227.06563 28.55L225.03438 28.55L225.03438 37.55L223.28438 37.55ZM235.09688 37.55L235.09688 23.2375L240.4875 23.2375Q241.925 23.2375 242.675 23.3625Q243.72188 23.55 244.44063 24.05Q245.15938 24.534374 245.58125 25.425Q246.01875 26.315624 246.01875 27.378124Q246.01875 29.20625 244.84688 30.471874Q243.69063 31.721874 240.65938 31.721874L236.9875 31.721874L236.9875 37.55L235.09688 37.55ZM236.9875 30.034374L240.69063 30.034374Q242.51875 30.034374 243.28438 29.3625Q244.06563 28.675 244.06563 27.425Q244.06563 26.534374 243.6125 25.89375Q243.15938 25.253124 242.425 25.05Q241.94063 24.925 240.64375 24.925L236.9875 24.925L236.9875 30.034374ZM248.3625 37.55L248.3625 35.55L250.3625 35.55L250.3625 37.55L248.3625 37.55ZM253.45625 32.95625L255.2375 32.8Q255.3625 33.8625 255.81563 34.55Q256.28436 35.2375 257.2531 35.675Q258.2375 36.096874 259.47186 36.096874Q260.55 36.096874 261.3781 35.784374Q262.20624 35.45625 262.6125 34.89375Q263.01874 34.33125 263.01874 33.659374Q263.01874 32.9875 262.6281 32.4875Q262.2375 31.9875 261.34686 31.64375Q260.76874 31.409374 258.78436 30.940624Q256.8156 30.471874 256.03436 30.05Q255.00313 29.51875 254.50313 28.721874Q254.00313 27.925 254.00313 26.940624Q254.00313 25.846874 254.6125 24.909374Q255.22188 23.971874 256.40936 23.4875Q257.59686 22.9875 259.03436 22.9875Q260.6281 22.9875 261.84686 23.503124Q263.0656 24.01875 263.70624 25.01875Q264.3625 26.003124 264.40936 27.26875L262.59686 27.409374Q262.45624 26.05 261.6125 25.3625Q260.76874 24.659374 259.1125 24.659374Q257.39374 24.659374 256.59686 25.3Q255.81563 25.925 255.81563 26.8Q255.81563 27.58125 256.3781 28.08125Q256.925 28.58125 259.2375 29.096874Q261.55 29.6125 262.40936 30.003124Q263.65936 30.58125 264.2531 31.471874Q264.84686 32.346874 264.84686 33.503124Q264.84686 34.64375 264.1906 35.659374Q263.53436 36.675 262.3 37.2375Q261.08124 37.8 259.55 37.8Q257.6125 37.8 256.3 37.2375Q254.9875 36.659374 254.2375 35.51875Q253.4875 34.378124 253.45625 32.95625ZM267.3625 37.55L267.3625 35.55L269.3625 35.55L269.3625 37.55L267.3625 37.55ZM287.5031 26.7375L285.7531 26.878124Q285.51874 25.846874 285.09686 25.378124Q284.3781 24.6125 283.33124 24.6125Q282.4875 24.6125 281.8625 25.08125Q281.03436 25.690624 280.55 26.8625Q280.0656 28.01875 280.05 30.159374Q280.6906 29.20625 281.59686 28.7375Q282.51874 28.26875 283.53436 28.26875Q285.28436 28.26875 286.51874 29.565624Q287.7531 30.846874 287.7531 32.89375Q287.7531 34.253124 287.175 35.409374Q286.59686 36.565624 285.58124 37.190624Q284.5656 37.8 283.26874 37.8Q281.08124 37.8 279.6906 36.190624Q278.3 34.565624 278.3 30.846874Q278.3 26.70625 279.83124 24.815624Q281.175 23.175 283.4406 23.175Q285.1281 23.175 286.20624 24.128124Q287.28436 25.065624 287.5031 26.7375ZM280.33124 32.909374Q280.33124 33.815624 280.70624 34.64375Q281.09686 35.471874 281.78436 35.909374Q282.4875 36.346874 283.2375 36.346874Q284.3625 36.346874 285.15936 35.45625Q285.95624 34.55 285.95624 33.003124Q285.95624 31.51875 285.15936 30.675Q284.3781 29.815624 283.175 29.815624Q281.9875 29.815624 281.15936 30.675Q280.33124 31.51875 280.33124 32.909374ZM295.01874 37.55L295.01874 34.128124L288.8 34.128124L288.8 32.503124L295.33124 23.2375L296.76874 23.2375L296.76874 32.503124L298.70624 32.503124L298.70624 34.128124L296.76874 34.128124L296.76874 37.55L295.01874 37.55ZM295.01874 32.503124L295.01874 26.05L290.53436 32.503124L295.01874 32.503124Z" fill-rule="nonzero"/></svg>